<svg preserveAspectRatio="none" overflow="visible" style="display: block;" width="40" height="40" viewBox="0 0 40 40" fill="none" xmlns="http://www.w3.org/2000/svg">
<g id="Group">
<path id="Vector" d="M1.56795 40H0.512821C0.376812 40 0.246374 39.946 0.150202 39.8498C0.0540291 39.7536 0 39.6232 0 39.4872C0 39.3512 0.0540291 39.2207 0.150202 39.1246C0.246374 39.0284 0.376812 38.9744 0.512821 38.9744H1.56795C1.70396 38.9744 1.8344 39.0284 1.93057 39.1246C2.02674 39.2207 2.08077 39.3512 2.08077 39.4872C2.08077 39.6232 2.02674 39.7536 1.93057 39.8498C1.8344 39.946 1.70396 40 1.56795 40ZM39.4872 38.9744H35.484V37.7778C35.484 36.5525 34.4871 35.5556 33.2618 35.5556H32.0308C31.8659 34.3058 31.1048 33.2113 29.961 32.6247C29.2028 32.2359 28.7318 31.465 28.7318 30.6128V17.3077H29.3728C30.1268 17.3077 30.7403 16.6942 30.7403 15.9402V14.1576H32.7706V22.6609C31.9346 22.887 31.3176 23.6518 31.3176 24.5584C31.3176 25.6423 32.1995 26.5242 33.2834 26.5242C34.3674 26.5242 35.2492 25.6423 35.2492 24.5584C35.2492 23.6518 34.6322 22.887 33.7962 22.6609V14.1576H34.9815C36.0671 14.1576 36.7125 12.8525 36.0389 11.9902C33.4232 8.6412 31.7238 4.64735 31.1242 0.440513C31.1068 0.318281 31.0459 0.206432 30.9526 0.125509C30.8594 0.0445864 30.74 2.17627e-05 30.6166 0H23.2574C23.134 -1.7477e-06 23.0146 0.0445415 22.9214 0.125449C22.8281 0.206357 22.7672 0.318196 22.7497 0.440427C22.1502 4.64727 20.4507 8.64111 17.835 11.9901C17.162 12.8519 17.8071 14.1575 18.8924 14.1575H23.1336V15.9402C23.1336 16.6942 23.7471 17.3077 24.5011 17.3077H27.7062V30.6129C27.7062 31.8516 28.3909 32.9722 29.4931 33.5374C30.2919 33.9469 30.8357 34.6941 30.992 35.5556H22.8821C23.0383 34.6941 23.5821 33.947 24.3809 33.5374C25.4832 32.9721 26.1679 31.8515 26.1679 30.6129V19.359C26.1679 19.223 26.1138 19.0925 26.0177 18.9964C25.9215 18.9002 25.7911 18.8462 25.655 18.8462C25.519 18.8462 25.3886 18.9002 25.2924 18.9964C25.1963 19.0925 25.1422 19.223 25.1422 19.359V30.6129C25.1422 31.465 24.6712 32.2359 23.913 32.6248C22.7693 33.2113 22.0082 34.3058 21.8433 35.5556H20.6123C19.387 35.5556 18.3901 36.5526 18.3901 37.7779V38.9744H15.2264C15.4564 38.6177 15.5785 38.2023 15.5781 37.7779V32.1427C15.5781 32.0066 15.5241 31.8762 15.4279 31.78C15.3317 31.6839 15.2013 31.6298 15.0653 31.6298H13.6211C15.7393 30.0791 17.8449 30.4573 18.1192 30.5986C18.2278 30.6772 18.3628 30.7102 18.4954 30.6905C18.6279 30.6708 18.7475 30.6 18.8285 30.4933C18.9095 30.3865 18.9455 30.2523 18.9288 30.1193C18.9121 29.9863 18.844 29.8652 18.7391 29.7818C18.0923 29.2706 14.7865 28.8834 12.0543 31.6299H11.7986C12.5106 28.9883 14.4007 26.8235 16.9539 25.7674C17.0796 25.7154 17.1795 25.6157 17.2316 25.49C17.2837 25.3644 17.2838 25.2232 17.2318 25.0975C17.1798 24.9718 17.08 24.872 16.9544 24.8198C16.8288 24.7677 16.6876 24.7677 16.5619 24.8197C13.8811 25.9285 11.8548 28.1322 10.9626 30.8442V26.4274C12.0841 26.1889 12.9285 25.1849 12.9285 23.9857C12.9285 22.7884 11.9632 20.4985 10.4498 20.4985C8.89538 20.4985 7.9712 22.6812 7.9712 23.9857C7.9712 25.1849 8.81556 26.1889 9.93701 26.4274V30.8443C9.04487 28.1323 7.01855 25.9285 4.33769 24.8197C4.27546 24.7939 4.20877 24.7807 4.14142 24.7807C4.07408 24.7807 4.0074 24.794 3.94519 24.8198C3.88298 24.8456 3.82646 24.8834 3.77887 24.9311C3.73127 24.9787 3.69352 25.0353 3.66778 25.0975C3.64204 25.1598 3.6288 25.2264 3.62883 25.2938C3.62887 25.3611 3.64216 25.4278 3.66797 25.49C3.69377 25.5522 3.73157 25.6087 3.77921 25.6563C3.82686 25.7039 3.88341 25.7417 3.94564 25.7674C6.49897 26.8236 8.38906 28.9884 9.10094 31.6299H8.8453C6.11316 28.8835 2.80709 29.2706 2.16051 29.7818C2.0551 29.865 1.98654 29.9863 1.96957 30.1195C1.95259 30.2527 1.98856 30.3873 2.06974 30.4943C2.15092 30.6013 2.27083 30.6721 2.4037 30.6917C2.53658 30.7112 2.67181 30.6778 2.78034 30.5987C3.0547 30.4573 5.16034 30.0791 7.27846 31.6298H5.83444C5.69844 31.6298 5.568 31.6839 5.47183 31.78C5.37565 31.8762 5.32162 32.0066 5.32162 32.1427V37.7778C5.32162 38.2183 5.45128 38.6287 5.67333 38.9744H4.05615C3.92015 38.9744 3.78971 39.0284 3.69354 39.1246C3.59736 39.2207 3.54333 39.3512 3.54333 39.4872C3.54333 39.6232 3.59736 39.7536 3.69354 39.8498C3.78971 39.946 3.92015 40 4.05615 40H39.4872C39.6232 40 39.7536 39.946 39.8498 39.8498C39.946 39.7536 40 39.6232 40 39.4872C40 39.3512 39.946 39.2207 39.8498 39.1246C39.7536 39.0284 39.6232 38.9744 39.4872 38.9744ZM34.2237 24.5584C34.2237 25.0768 33.8019 25.4985 33.2835 25.4985C32.7651 25.4985 32.3433 25.0768 32.3433 24.5584C32.3433 24.04 32.7651 23.6182 33.2835 23.6182C33.8019 23.6182 34.2237 24.04 34.2237 24.5584ZM18.8924 13.132C18.6308 13.132 18.4824 12.8276 18.6433 12.6215C21.2777 9.24855 23.0203 5.24769 23.6984 1.02564H30.1756C30.8537 5.24769 32.5963 9.24855 35.2307 12.6215C35.3917 12.8276 35.2432 13.132 34.9816 13.132H18.8924ZM24.5011 16.2821C24.3126 16.2821 24.1592 16.1287 24.1592 15.9402V14.1576H29.7148V15.9402C29.7148 16.1287 29.5615 16.2821 29.3729 16.2821H24.5011ZM8.99684 23.9855C8.99684 23.0358 9.79017 21.5239 10.4498 21.5239C11.3587 21.5239 11.9028 23.2667 11.9028 23.9855C11.9028 24.7961 11.251 25.4556 10.4498 25.4556C9.64863 25.4556 8.99684 24.7962 8.99684 23.9855ZM14.5524 37.7778C14.5524 38.4376 14.0156 38.9744 13.3558 38.9744H7.54385C6.88402 38.9744 6.34727 38.4376 6.34727 37.7778V32.6554H14.5524V37.7778ZM34.4584 38.9744H19.4156V37.7778C19.4156 37.1179 19.9524 36.5812 20.6122 36.5812H33.2618C33.9216 36.5812 34.4584 37.1179 34.4584 37.7778V38.9744Z" fill="#C9A84C"/>
<path id="Vector_2" d="M13.5043 15.7062H8.54701C8.411 15.7062 8.28056 15.6522 8.18439 15.556C8.08822 15.4599 8.03419 15.3294 8.03419 15.1934V10.2362C8.03419 10.1001 8.08822 9.96971 8.18439 9.87353C8.28056 9.77736 8.411 9.72333 8.54701 9.72333H13.5043C13.6403 9.72333 13.7707 9.77736 13.8669 9.87353C13.9631 9.96971 14.0171 10.1001 14.0171 10.2362V15.1934C14.0171 15.3294 13.9631 15.4599 13.8669 15.556C13.7707 15.6522 13.6403 15.7062 13.5043 15.7062ZM9.05983 14.6806H12.9915V10.749H9.05983V14.6806ZM6.75214 7.22436H2.64957C2.51356 7.22436 2.38313 7.17033 2.28695 7.07416C2.19078 6.97798 2.13675 6.84755 2.13675 6.71154V2.60897C2.13675 2.47296 2.19078 2.34253 2.28695 2.24635C2.38313 2.15018 2.51356 2.09615 2.64957 2.09615H6.75214C6.88814 2.09615 7.01858 2.15018 7.11475 2.24635C7.21093 2.34253 7.26496 2.47296 7.26496 2.60897V6.71154C7.26496 6.84755 7.21093 6.97798 7.11475 7.07416C7.01858 7.17033 6.88814 7.22436 6.75214 7.22436ZM3.16239 6.19872H6.23932V3.12179H3.16239V6.19872Z" fill="#C9A84C"/>
</g>
</svg>
